<mxfile host="65bd71144e">
    <diagram id="PnNwpbYG1peqZBWpXUGm" name="Page-1">
        <mxGraphModel dx="2314" dy="2202" grid="1" gridSize="10" guides="1" tooltips="1" connect="1" arrows="1" fold="1" page="1" pageScale="1" pageWidth="827" pageHeight="1169" math="0" shadow="0">
            <root>
                <mxCell id="0"/>
                <mxCell id="1" parent="0"/>
                <mxCell id="117" style="edgeStyle=none;html=1;exitX=0.625;exitY=0;exitDx=0;exitDy=0;startArrow=none;startFill=0;endArrow=classic;endFill=1;exitPerimeter=0;" parent="1" source="148" edge="1">
                    <mxGeometry relative="1" as="geometry">
                        <mxPoint x="-150" y="-130" as="targetPoint"/>
                    </mxGeometry>
                </mxCell>
                <mxCell id="155" style="edgeStyle=none;html=1;exitX=1;exitY=0.646;exitDx=0;exitDy=0;entryX=0;entryY=0.25;entryDx=0;entryDy=0;startArrow=none;exitPerimeter=0;" edge="1" parent="1" source="160" target="14">
                    <mxGeometry relative="1" as="geometry"/>
                </mxCell>
                <mxCell id="163" style="edgeStyle=none;html=1;exitX=0.5;exitY=1;exitDx=0;exitDy=0;entryX=0.506;entryY=-0.119;entryDx=0;entryDy=0;entryPerimeter=0;endArrow=none;endFill=0;startArrow=classic;startFill=1;" edge="1" parent="1" source="6" target="31">
                    <mxGeometry relative="1" as="geometry"/>
                </mxCell>
                <mxCell id="175" style="edgeStyle=none;html=1;exitX=0.565;exitY=1.018;exitDx=0;exitDy=0;entryX=0.693;entryY=0.016;entryDx=0;entryDy=0;entryPerimeter=0;startArrow=none;startFill=0;endArrow=classic;endFill=1;exitPerimeter=0;" edge="1" parent="1" source="190" target="17">
                    <mxGeometry relative="1" as="geometry">
                        <Array as="points"/>
                    </mxGeometry>
                </mxCell>
                <mxCell id="196" style="edgeStyle=none;html=1;startArrow=none;startFill=0;endArrow=classic;endFill=1;" edge="1" parent="1">
                    <mxGeometry relative="1" as="geometry">
                        <mxPoint x="-120" y="210" as="sourcePoint"/>
                        <mxPoint x="-170" y="360" as="targetPoint"/>
                    </mxGeometry>
                </mxCell>
                <mxCell id="205" style="edgeStyle=none;html=1;entryX=0;entryY=0.75;entryDx=0;entryDy=0;startArrow=none;startFill=0;endArrow=classic;endFill=1;" edge="1" parent="1" target="15">
                    <mxGeometry relative="1" as="geometry">
                        <mxPoint x="-330" y="340" as="sourcePoint"/>
                        <Array as="points">
                            <mxPoint x="-330" y="340"/>
                            <mxPoint x="-330" y="500"/>
                        </Array>
                    </mxGeometry>
                </mxCell>
                <mxCell id="6" value="READY_FOR_REVIEW" style="rounded=1;whiteSpace=wrap;html=1;fillColor=#fad7ac;strokeColor=#b46504;" parent="1" vertex="1">
                    <mxGeometry x="-115" y="-40" width="170" height="90" as="geometry"/>
                </mxCell>
                <mxCell id="20" style="edgeStyle=none;html=1;exitX=0.5;exitY=1;exitDx=0;exitDy=0;entryX=0.5;entryY=0;entryDx=0;entryDy=0;startArrow=none;" parent="1" source="21" target="13" edge="1">
                    <mxGeometry relative="1" as="geometry"/>
                </mxCell>
                <mxCell id="112" style="edgeStyle=none;html=1;exitX=0.144;exitY=-0.144;exitDx=0;exitDy=0;startArrow=none;startFill=1;endArrow=none;endFill=0;exitPerimeter=0;" parent="1" source="113" edge="1">
                    <mxGeometry relative="1" as="geometry">
                        <mxPoint x="20" y="120" as="targetPoint"/>
                        <mxPoint x="81.54999999999995" y="128.72000000000006" as="sourcePoint"/>
                    </mxGeometry>
                </mxCell>
                <mxCell id="165" style="edgeStyle=none;html=1;exitX=0.5;exitY=0;exitDx=0;exitDy=0;startArrow=classic;startFill=1;endArrow=none;endFill=0;" edge="1" parent="1" source="12">
                    <mxGeometry relative="1" as="geometry">
                        <mxPoint x="240" y="130" as="targetPoint"/>
                    </mxGeometry>
                </mxCell>
                <mxCell id="168" style="edgeStyle=none;html=1;startArrow=none;startFill=0;endArrow=classic;endFill=1;" edge="1" parent="1" source="182">
                    <mxGeometry relative="1" as="geometry">
                        <mxPoint x="520" y="370" as="targetPoint"/>
                    </mxGeometry>
                </mxCell>
                <mxCell id="169" style="edgeStyle=none;html=1;exitX=0;exitY=0.5;exitDx=0;exitDy=0;entryX=0.5;entryY=0;entryDx=0;entryDy=0;startArrow=none;startFill=0;endArrow=classic;endFill=1;" edge="1" parent="1" source="199" target="16">
                    <mxGeometry relative="1" as="geometry"/>
                </mxCell>
                <mxCell id="172" style="edgeStyle=none;html=1;entryX=1;entryY=0.5;entryDx=0;entryDy=0;startArrow=none;startFill=0;endArrow=classic;endFill=1;" edge="1" parent="1" target="15">
                    <mxGeometry relative="1" as="geometry">
                        <mxPoint x="380" y="370" as="sourcePoint"/>
                        <Array as="points">
                            <mxPoint x="380" y="510"/>
                        </Array>
                    </mxGeometry>
                </mxCell>
                <mxCell id="179" style="edgeStyle=none;html=1;exitX=0.25;exitY=0;exitDx=0;exitDy=0;entryX=0.467;entryY=1.168;entryDx=0;entryDy=0;entryPerimeter=0;startArrow=none;startFill=0;endArrow=none;endFill=0;" edge="1" parent="1" source="12" target="178">
                    <mxGeometry relative="1" as="geometry"/>
                </mxCell>
                <mxCell id="12" value="&lt;b&gt;READY&lt;/b&gt;" style="rounded=1;whiteSpace=wrap;html=1;fillColor=#fad7ac;strokeColor=#b46504;strokeWidth=3;" parent="1" vertex="1">
                    <mxGeometry x="100" y="172.5" width="170" height="90" as="geometry"/>
                </mxCell>
                <mxCell id="45" style="edgeStyle=none;html=1;entryX=0.25;entryY=1;entryDx=0;entryDy=0;startArrow=none;" parent="1" target="12" edge="1">
                    <mxGeometry relative="1" as="geometry">
                        <mxPoint x="143" y="290" as="sourcePoint"/>
                    </mxGeometry>
                </mxCell>
                <mxCell id="120" style="edgeStyle=none;html=1;startArrow=none;startFill=0;endArrow=classic;endFill=1;" parent="1" source="135" edge="1">
                    <mxGeometry relative="1" as="geometry">
                        <mxPoint x="50" y="570" as="targetPoint"/>
                    </mxGeometry>
                </mxCell>
                <mxCell id="162" style="edgeStyle=none;html=1;exitX=0;exitY=0.5;exitDx=0;exitDy=0;entryX=0.47;entryY=1.081;entryDx=0;entryDy=0;entryPerimeter=0;endArrow=none;endFill=0;" edge="1" parent="1" source="13" target="31">
                    <mxGeometry relative="1" as="geometry"/>
                </mxCell>
                <mxCell id="170" style="edgeStyle=none;html=1;exitX=0;exitY=0.5;exitDx=0;exitDy=0;entryX=1.021;entryY=0.596;entryDx=0;entryDy=0;entryPerimeter=0;startArrow=none;startFill=0;endArrow=classic;endFill=1;" edge="1" parent="1" source="201" target="16">
                    <mxGeometry relative="1" as="geometry"/>
                </mxCell>
                <mxCell id="171" style="edgeStyle=none;html=1;exitX=1;exitY=0.5;exitDx=0;exitDy=0;entryX=0;entryY=0.5;entryDx=0;entryDy=0;startArrow=none;startFill=0;endArrow=classic;endFill=1;" edge="1" parent="1" source="184" target="17">
                    <mxGeometry relative="1" as="geometry"/>
                </mxCell>
                <mxCell id="211" style="edgeStyle=none;html=1;exitX=0.5;exitY=1;exitDx=0;exitDy=0;startArrow=none;startFill=0;endArrow=classic;endFill=1;" edge="1" parent="1" source="212" target="15">
                    <mxGeometry relative="1" as="geometry"/>
                </mxCell>
                <mxCell id="13" value="&lt;b&gt;CLAIMED&lt;/b&gt;" style="rounded=1;whiteSpace=wrap;html=1;fillColor=#fad7ac;strokeColor=#b46504;strokeWidth=3;" parent="1" vertex="1">
                    <mxGeometry x="100" y="370" width="170" height="90" as="geometry"/>
                </mxCell>
                <mxCell id="118" style="edgeStyle=none;html=1;startArrow=none;startFill=0;endArrow=classic;endFill=1;exitX=0.584;exitY=-0.134;exitDx=0;exitDy=0;exitPerimeter=0;" parent="1" source="150" edge="1">
                    <mxGeometry relative="1" as="geometry">
                        <mxPoint x="530" y="-130" as="targetPoint"/>
                        <mxPoint x="450" y="-100" as="sourcePoint"/>
                    </mxGeometry>
                </mxCell>
                <mxCell id="156" style="edgeStyle=none;html=1;entryX=1;entryY=0.75;entryDx=0;entryDy=0;startArrow=none;" edge="1" parent="1" target="6">
                    <mxGeometry relative="1" as="geometry">
                        <mxPoint x="100" y="28" as="sourcePoint"/>
                    </mxGeometry>
                </mxCell>
                <mxCell id="166" style="edgeStyle=none;html=1;exitX=0.5;exitY=1;exitDx=0;exitDy=0;entryX=0.407;entryY=-0.174;entryDx=0;entryDy=0;entryPerimeter=0;startArrow=none;startFill=0;endArrow=none;endFill=0;" edge="1" parent="1" source="14" target="40">
                    <mxGeometry relative="1" as="geometry"/>
                </mxCell>
                <mxCell id="174" style="edgeStyle=none;html=1;startArrow=none;startFill=0;endArrow=classic;endFill=1;exitX=0.486;exitY=1.048;exitDx=0;exitDy=0;exitPerimeter=0;entryX=0.599;entryY=-0.002;entryDx=0;entryDy=0;entryPerimeter=0;" edge="1" parent="1" source="186" target="17">
                    <mxGeometry relative="1" as="geometry">
                        <mxPoint x="470" y="200" as="sourcePoint"/>
                        <mxPoint x="530" y="360" as="targetPoint"/>
                        <Array as="points"/>
                    </mxGeometry>
                </mxCell>
                <mxCell id="176" style="edgeStyle=none;html=1;exitX=0.257;exitY=1.231;exitDx=0;exitDy=0;startArrow=none;startFill=0;endArrow=classic;endFill=1;exitPerimeter=0;" edge="1" parent="1" source="193">
                    <mxGeometry relative="1" as="geometry">
                        <mxPoint x="-190" y="360" as="targetPoint"/>
                        <Array as="points"/>
                    </mxGeometry>
                </mxCell>
                <mxCell id="204" style="edgeStyle=none;html=1;entryX=1;entryY=0.75;entryDx=0;entryDy=0;startArrow=none;startFill=0;endArrow=classic;endFill=1;" edge="1" parent="1" source="206" target="15">
                    <mxGeometry relative="1" as="geometry">
                        <mxPoint x="690" y="340" as="sourcePoint"/>
                        <Array as="points">
                            <mxPoint x="680" y="500"/>
                        </Array>
                    </mxGeometry>
                </mxCell>
                <mxCell id="14" value="IN_REVIEW" style="rounded=1;whiteSpace=wrap;html=1;fillColor=#fad7ac;strokeColor=#b46504;" parent="1" vertex="1">
                    <mxGeometry x="310" y="-40" width="170" height="90" as="geometry"/>
                </mxCell>
                <mxCell id="121" style="edgeStyle=none;html=1;startArrow=none;startFill=0;endArrow=classic;endFill=1;exitX=0.49;exitY=1.253;exitDx=0;exitDy=0;exitPerimeter=0;" parent="1" source="132" edge="1">
                    <mxGeometry relative="1" as="geometry">
                        <mxPoint x="190" y="730" as="targetPoint"/>
                        <mxPoint x="190" y="710" as="sourcePoint"/>
                    </mxGeometry>
                </mxCell>
                <mxCell id="15" value="&lt;b&gt;COMPLETED&lt;/b&gt;" style="rounded=1;whiteSpace=wrap;html=1;fillColor=#fad7ac;strokeColor=#b46504;strokeWidth=3;" parent="1" vertex="1">
                    <mxGeometry x="100" y="560" width="170" height="90" as="geometry"/>
                </mxCell>
                <mxCell id="124" style="edgeStyle=none;html=1;startArrow=none;startFill=0;endArrow=classic;endFill=1;exitX=0.27;exitY=-0.224;exitDx=0;exitDy=0;exitPerimeter=0;" parent="1" edge="1" source="145">
                    <mxGeometry relative="1" as="geometry">
                        <mxPoint x="-260" y="280" as="targetPoint"/>
                        <mxPoint x="-210" y="312.5" as="sourcePoint"/>
                    </mxGeometry>
                </mxCell>
                <mxCell id="16" value="TERMINATED" style="rounded=1;whiteSpace=wrap;html=1;fillColor=#fad7ac;strokeColor=#b46504;" parent="1" vertex="1">
                    <mxGeometry x="-240" y="362.5" width="170" height="90" as="geometry"/>
                </mxCell>
                <mxCell id="123" style="edgeStyle=none;html=1;startArrow=none;startFill=0;endArrow=classic;endFill=1;" parent="1" edge="1">
                    <mxGeometry relative="1" as="geometry">
                        <mxPoint x="630" y="283" as="targetPoint"/>
                        <mxPoint x="610" y="313" as="sourcePoint"/>
                    </mxGeometry>
                </mxCell>
                <mxCell id="17" value="CANCELLED" style="rounded=1;whiteSpace=wrap;html=1;fillColor=#fad7ac;strokeColor=#b46504;" parent="1" vertex="1">
                    <mxGeometry x="440" y="370" width="170" height="90" as="geometry"/>
                </mxCell>
                <mxCell id="46" value="cancelClaim()" style="text;html=1;align=center;verticalAlign=middle;resizable=0;points=[];autosize=1;strokeColor=none;fillColor=none;" parent="1" vertex="1">
                    <mxGeometry x="70" y="307.5" width="90" height="20" as="geometry"/>
                </mxCell>
                <mxCell id="40" value="requestChanges()" style="text;html=1;align=center;verticalAlign=middle;resizable=0;points=[];autosize=1;strokeColor=none;fillColor=none;" parent="1" vertex="1">
                    <mxGeometry x="220" y="110" width="110" height="20" as="geometry"/>
                </mxCell>
                <mxCell id="31" value="requestReview()" style="text;html=1;align=center;verticalAlign=middle;resizable=0;points=[];autosize=1;strokeColor=none;fillColor=none;" parent="1" vertex="1">
                    <mxGeometry x="-60" y="190" width="100" height="20" as="geometry"/>
                </mxCell>
                <mxCell id="53" value="transfer()" style="text;html=1;align=center;verticalAlign=middle;resizable=0;points=[];autosize=1;strokeColor=none;fillColor=none;" parent="1" vertex="1">
                    <mxGeometry x="100" y="292.5" width="60" height="20" as="geometry"/>
                </mxCell>
                <mxCell id="89" value="" style="edgeStyle=none;html=1;exitX=0.25;exitY=0;exitDx=0;exitDy=0;endArrow=none;" parent="1" source="13" edge="1">
                    <mxGeometry relative="1" as="geometry">
                        <mxPoint x="142.5" y="370" as="sourcePoint"/>
                        <mxPoint x="143" y="340" as="targetPoint"/>
                    </mxGeometry>
                </mxCell>
                <mxCell id="21" value="claim()" style="text;html=1;align=center;verticalAlign=middle;resizable=0;points=[];autosize=1;strokeColor=none;fillColor=none;fontStyle=1" parent="1" vertex="1">
                    <mxGeometry x="160" y="312.5" width="50" height="20" as="geometry"/>
                </mxCell>
                <mxCell id="90" value="" style="edgeStyle=none;html=1;exitX=0.5;exitY=1;exitDx=0;exitDy=0;endArrow=none;" parent="1" source="12" edge="1">
                    <mxGeometry relative="1" as="geometry">
                        <mxPoint x="185" y="262.5" as="sourcePoint"/>
                        <mxPoint x="185" y="310" as="targetPoint"/>
                    </mxGeometry>
                </mxCell>
                <mxCell id="113" value="create()" style="text;html=1;align=center;verticalAlign=middle;resizable=0;points=[];autosize=1;strokeColor=none;fillColor=none;fontStyle=1" parent="1" vertex="1">
                    <mxGeometry x="40" y="140" width="60" height="20" as="geometry"/>
                </mxCell>
                <mxCell id="114" value="" style="edgeStyle=none;html=1;exitX=0.25;exitY=0;exitDx=0;exitDy=0;startArrow=classic;startFill=1;endArrow=none;endFill=0;entryX=0.527;entryY=1.146;entryDx=0;entryDy=0;entryPerimeter=0;" parent="1" edge="1" target="113">
                    <mxGeometry relative="1" as="geometry">
                        <mxPoint x="90" y="150" as="targetPoint"/>
                        <mxPoint x="101.25" y="182.5" as="sourcePoint"/>
                    </mxGeometry>
                </mxCell>
                <mxCell id="132" value="delete()" style="text;html=1;align=center;verticalAlign=middle;resizable=0;points=[];autosize=1;strokeColor=none;fillColor=none;fontStyle=1" parent="1" vertex="1">
                    <mxGeometry x="160" y="670" width="60" height="20" as="geometry"/>
                </mxCell>
                <mxCell id="133" value="" style="edgeStyle=none;html=1;exitX=0.5;exitY=1;exitDx=0;exitDy=0;startArrow=none;startFill=0;endArrow=none;endFill=1;" parent="1" source="15" target="132" edge="1">
                    <mxGeometry relative="1" as="geometry">
                        <mxPoint x="190.15789473684208" y="710" as="targetPoint"/>
                        <mxPoint x="190" y="650" as="sourcePoint"/>
                    </mxGeometry>
                </mxCell>
                <mxCell id="135" value="forceDelete()" style="text;html=1;align=center;verticalAlign=middle;resizable=0;points=[];autosize=1;strokeColor=none;fillColor=none;" parent="1" vertex="1">
                    <mxGeometry x="30" y="510" width="80" height="20" as="geometry"/>
                </mxCell>
                <mxCell id="136" value="" style="edgeStyle=none;html=1;exitX=0;exitY=1;exitDx=0;exitDy=0;startArrow=none;startFill=0;endArrow=none;endFill=1;" parent="1" source="13" target="135" edge="1">
                    <mxGeometry relative="1" as="geometry">
                        <mxPoint x="40" y="580" as="targetPoint"/>
                        <mxPoint x="100" y="460" as="sourcePoint"/>
                    </mxGeometry>
                </mxCell>
                <mxCell id="140" value="" style="edgeStyle=none;html=1;exitX=0.814;exitY=-0.024;exitDx=0;exitDy=0;startArrow=none;startFill=0;endArrow=none;endFill=1;entryX=0.576;entryY=1.156;entryDx=0;entryDy=0;entryPerimeter=0;exitPerimeter=0;" parent="1" source="17" target="142" edge="1">
                    <mxGeometry relative="1" as="geometry">
                        <mxPoint x="595" y="347.5" as="targetPoint"/>
                        <mxPoint x="590" y="370" as="sourcePoint"/>
                    </mxGeometry>
                </mxCell>
                <mxCell id="142" value="delete()" style="text;html=1;align=center;verticalAlign=middle;resizable=0;points=[];autosize=1;strokeColor=none;fillColor=none;" parent="1" vertex="1">
                    <mxGeometry x="560" y="317.5" width="60" height="20" as="geometry"/>
                </mxCell>
                <mxCell id="145" value="delete()" style="text;html=1;align=center;verticalAlign=middle;resizable=0;points=[];autosize=1;strokeColor=none;fillColor=none;" parent="1" vertex="1">
                    <mxGeometry x="-260" y="312.5" width="60" height="20" as="geometry"/>
                </mxCell>
                <mxCell id="146" value="" style="edgeStyle=none;html=1;exitX=0.5;exitY=0;exitDx=0;exitDy=0;startArrow=none;startFill=0;endArrow=none;endFill=1;entryX=0.496;entryY=1.244;entryDx=0;entryDy=0;entryPerimeter=0;" parent="1" target="145" edge="1">
                    <mxGeometry relative="1" as="geometry">
                        <mxPoint x="-210" y="353.0799999999999" as="targetPoint"/>
                        <mxPoint x="-210" y="362.5" as="sourcePoint"/>
                    </mxGeometry>
                </mxCell>
                <mxCell id="148" value="forceDelete()" style="text;html=1;align=center;verticalAlign=middle;resizable=0;points=[];autosize=1;strokeColor=none;fillColor=none;" parent="1" vertex="1">
                    <mxGeometry x="-180" y="-100" width="80" height="20" as="geometry"/>
                </mxCell>
                <mxCell id="149" value="" style="edgeStyle=none;html=1;startArrow=none;startFill=0;endArrow=none;endFill=1;entryX=0.826;entryY=1.257;entryDx=0;entryDy=0;entryPerimeter=0;" parent="1" target="148" edge="1">
                    <mxGeometry relative="1" as="geometry">
                        <mxPoint x="-110" y="-340" as="targetPoint"/>
                        <mxPoint x="-90" y="-46" as="sourcePoint"/>
                    </mxGeometry>
                </mxCell>
                <mxCell id="150" value="forceDelete()" style="text;html=1;align=center;verticalAlign=middle;resizable=0;points=[];autosize=1;strokeColor=none;fillColor=none;" parent="1" vertex="1">
                    <mxGeometry x="460" y="-100" width="80" height="20" as="geometry"/>
                </mxCell>
                <mxCell id="151" value="" style="edgeStyle=none;html=1;exitX=0.888;exitY=-0.048;exitDx=0;exitDy=0;startArrow=none;startFill=0;endArrow=none;endFill=1;exitPerimeter=0;entryX=0.337;entryY=1.257;entryDx=0;entryDy=0;entryPerimeter=0;" parent="1" source="14" target="150" edge="1">
                    <mxGeometry relative="1" as="geometry">
                        <mxPoint x="500" y="-70" as="targetPoint"/>
                        <mxPoint x="415" y="50" as="sourcePoint"/>
                    </mxGeometry>
                </mxCell>
                <mxCell id="157" value="cancelClaim()" style="text;html=1;align=center;verticalAlign=middle;resizable=0;points=[];autosize=1;strokeColor=none;fillColor=none;" vertex="1" parent="1">
                    <mxGeometry x="100" y="30" width="90" height="20" as="geometry"/>
                </mxCell>
                <mxCell id="158" value="transfer()" style="text;html=1;align=center;verticalAlign=middle;resizable=0;points=[];autosize=1;strokeColor=none;fillColor=none;" vertex="1" parent="1">
                    <mxGeometry x="130" y="10" width="60" height="20" as="geometry"/>
                </mxCell>
                <mxCell id="159" value="" style="edgeStyle=none;html=1;exitX=0;exitY=0.75;exitDx=0;exitDy=0;endArrow=none;" edge="1" parent="1" source="14">
                    <mxGeometry relative="1" as="geometry">
                        <mxPoint x="245" y="27.5" as="sourcePoint"/>
                        <mxPoint x="186" y="28" as="targetPoint"/>
                    </mxGeometry>
                </mxCell>
                <mxCell id="160" value="claim()" style="text;html=1;align=center;verticalAlign=middle;resizable=0;points=[];autosize=1;strokeColor=none;fillColor=none;fontStyle=1" vertex="1" parent="1">
                    <mxGeometry x="120" y="-30" width="50" height="20" as="geometry"/>
                </mxCell>
                <mxCell id="161" value="" style="edgeStyle=none;html=1;exitX=1;exitY=0.25;exitDx=0;exitDy=0;entryX=-0.008;entryY=0.646;entryDx=0;entryDy=0;endArrow=none;entryPerimeter=0;" edge="1" parent="1" source="6" target="160">
                    <mxGeometry relative="1" as="geometry">
                        <mxPoint x="30" y="-17.5" as="sourcePoint"/>
                        <mxPoint x="245" y="-17.5" as="targetPoint"/>
                    </mxGeometry>
                </mxCell>
                <mxCell id="181" value="" style="edgeStyle=none;html=1;startArrow=none;startFill=0;endArrow=classic;endFill=1;exitX=0.436;exitY=-0.1;exitDx=0;exitDy=0;exitPerimeter=0;" edge="1" parent="1" source="178">
                    <mxGeometry relative="1" as="geometry">
                        <mxPoint x="140" y="110" as="targetPoint"/>
                    </mxGeometry>
                </mxCell>
                <mxCell id="178" value="forceDelete()" style="text;html=1;align=center;verticalAlign=middle;resizable=0;points=[];autosize=1;strokeColor=none;fillColor=none;" vertex="1" parent="1">
                    <mxGeometry x="105" y="130" width="80" height="20" as="geometry"/>
                </mxCell>
                <mxCell id="182" value="cancel()" style="text;html=1;align=center;verticalAlign=middle;resizable=0;points=[];autosize=1;strokeColor=none;fillColor=none;" vertex="1" parent="1">
                    <mxGeometry x="400" y="302.5" width="60" height="20" as="geometry"/>
                </mxCell>
                <mxCell id="183" value="" style="edgeStyle=none;html=1;exitX=1;exitY=0.5;exitDx=0;exitDy=0;startArrow=none;startFill=0;endArrow=none;endFill=1;" edge="1" parent="1" source="12" target="182">
                    <mxGeometry relative="1" as="geometry">
                        <mxPoint x="520" y="370" as="targetPoint"/>
                        <mxPoint x="270" y="217.5" as="sourcePoint"/>
                    </mxGeometry>
                </mxCell>
                <mxCell id="184" value="cancel()" style="text;html=1;align=center;verticalAlign=middle;resizable=0;points=[];autosize=1;strokeColor=none;fillColor=none;" vertex="1" parent="1">
                    <mxGeometry x="310" y="405" width="60" height="20" as="geometry"/>
                </mxCell>
                <mxCell id="185" value="" style="edgeStyle=none;html=1;exitX=1;exitY=0.5;exitDx=0;exitDy=0;entryX=0;entryY=0.5;entryDx=0;entryDy=0;startArrow=none;startFill=0;endArrow=none;endFill=1;" edge="1" parent="1" source="13" target="184">
                    <mxGeometry relative="1" as="geometry">
                        <mxPoint x="270" y="415" as="sourcePoint"/>
                        <mxPoint x="440" y="415" as="targetPoint"/>
                    </mxGeometry>
                </mxCell>
                <mxCell id="186" value="cancel()" style="text;html=1;align=center;verticalAlign=middle;resizable=0;points=[];autosize=1;strokeColor=none;fillColor=none;" vertex="1" parent="1">
                    <mxGeometry x="450" y="190" width="60" height="20" as="geometry"/>
                </mxCell>
                <mxCell id="187" value="" style="edgeStyle=none;html=1;exitX=0.75;exitY=1;exitDx=0;exitDy=0;entryX=0.326;entryY=-0.082;entryDx=0;entryDy=0;entryPerimeter=0;startArrow=none;startFill=0;endArrow=none;endFill=1;" edge="1" parent="1" source="14" target="186">
                    <mxGeometry relative="1" as="geometry">
                        <mxPoint x="437.5" y="50" as="sourcePoint"/>
                        <mxPoint x="551.6899999999996" y="366.94000000000005" as="targetPoint"/>
                        <Array as="points"/>
                    </mxGeometry>
                </mxCell>
                <mxCell id="190" value="cancel()" style="text;html=1;align=center;verticalAlign=middle;resizable=0;points=[];autosize=1;strokeColor=none;fillColor=none;" vertex="1" parent="1">
                    <mxGeometry x="480" y="130" width="60" height="20" as="geometry"/>
                </mxCell>
                <mxCell id="191" value="" style="edgeStyle=none;html=1;exitX=1;exitY=1;exitDx=0;exitDy=0;entryX=0.356;entryY=-0.131;entryDx=0;entryDy=0;entryPerimeter=0;startArrow=none;startFill=0;endArrow=none;endFill=1;" edge="1" parent="1" source="6" target="190">
                    <mxGeometry relative="1" as="geometry">
                        <mxPoint x="54.99999999999977" y="49.99999999999977" as="sourcePoint"/>
                        <mxPoint x="539.6199999999999" y="369.27999999999975" as="targetPoint"/>
                        <Array as="points"/>
                    </mxGeometry>
                </mxCell>
                <mxCell id="193" value="terminate()" style="text;html=1;align=center;verticalAlign=middle;resizable=0;points=[];autosize=1;strokeColor=none;fillColor=none;" vertex="1" parent="1">
                    <mxGeometry x="-190" y="120" width="70" height="20" as="geometry"/>
                </mxCell>
                <mxCell id="194" value="" style="edgeStyle=none;html=1;exitX=0;exitY=1;exitDx=0;exitDy=0;entryX=0.428;entryY=-0.018;entryDx=0;entryDy=0;entryPerimeter=0;startArrow=none;startFill=0;endArrow=none;endFill=1;" edge="1" parent="1" source="14" target="193">
                    <mxGeometry relative="1" as="geometry">
                        <mxPoint x="310" y="50.00000000000023" as="sourcePoint"/>
                        <mxPoint x="-167.24" y="360.8800000000001" as="targetPoint"/>
                        <Array as="points"/>
                    </mxGeometry>
                </mxCell>
                <mxCell id="197" value="terminate()" style="text;html=1;align=center;verticalAlign=middle;resizable=0;points=[];autosize=1;strokeColor=none;fillColor=none;" vertex="1" parent="1">
                    <mxGeometry x="-150" y="190" width="70" height="20" as="geometry"/>
                </mxCell>
                <mxCell id="198" value="" style="edgeStyle=none;html=1;exitX=0.25;exitY=1;exitDx=0;exitDy=0;startArrow=none;startFill=0;endArrow=none;endFill=1;" edge="1" parent="1" source="6" target="197">
                    <mxGeometry relative="1" as="geometry">
                        <mxPoint x="-72.5" y="50.00000000000023" as="sourcePoint"/>
                        <mxPoint x="-170" y="360" as="targetPoint"/>
                    </mxGeometry>
                </mxCell>
                <mxCell id="199" value="terminate()" style="text;html=1;align=center;verticalAlign=middle;resizable=0;points=[];autosize=1;strokeColor=none;fillColor=none;" vertex="1" parent="1">
                    <mxGeometry x="-100" y="292.5" width="70" height="20" as="geometry"/>
                </mxCell>
                <mxCell id="200" value="" style="edgeStyle=none;html=1;exitX=0;exitY=0.5;exitDx=0;exitDy=0;entryX=0.5;entryY=0;entryDx=0;entryDy=0;startArrow=none;startFill=0;endArrow=none;endFill=1;" edge="1" parent="1" source="12" target="199">
                    <mxGeometry relative="1" as="geometry">
                        <mxPoint x="100" y="217.50000000000023" as="sourcePoint"/>
                        <mxPoint x="-155" y="362.5" as="targetPoint"/>
                    </mxGeometry>
                </mxCell>
                <mxCell id="201" value="terminate()" style="text;html=1;align=center;verticalAlign=middle;resizable=0;points=[];autosize=1;strokeColor=none;fillColor=none;" vertex="1" parent="1">
                    <mxGeometry x="-30" y="405" width="70" height="20" as="geometry"/>
                </mxCell>
                <mxCell id="202" value="" style="edgeStyle=none;html=1;exitX=0;exitY=0.5;exitDx=0;exitDy=0;entryX=1.021;entryY=0.596;entryDx=0;entryDy=0;entryPerimeter=0;startArrow=none;startFill=0;endArrow=none;endFill=1;" edge="1" parent="1" source="13" target="201">
                    <mxGeometry relative="1" as="geometry">
                        <mxPoint x="100" y="415" as="sourcePoint"/>
                        <mxPoint x="-66.42999999999984" y="416.1400000000003" as="targetPoint"/>
                    </mxGeometry>
                </mxCell>
                <mxCell id="206" value="forceComplete()" style="text;html=1;align=center;verticalAlign=middle;resizable=0;points=[];autosize=1;strokeColor=none;fillColor=none;" vertex="1" parent="1">
                    <mxGeometry x="630" y="317.5" width="100" height="20" as="geometry"/>
                </mxCell>
                <mxCell id="208" value="" style="edgeStyle=none;html=1;exitX=1;exitY=0.5;exitDx=0;exitDy=0;startArrow=none;startFill=0;endArrow=none;endFill=1;" edge="1" parent="1" source="14">
                    <mxGeometry relative="1" as="geometry">
                        <mxPoint x="480" y="5" as="sourcePoint"/>
                        <mxPoint x="680" y="310" as="targetPoint"/>
                        <Array as="points">
                            <mxPoint x="680" y="130"/>
                        </Array>
                    </mxGeometry>
                </mxCell>
                <mxCell id="209" value="forceComplete()" style="text;html=1;align=center;verticalAlign=middle;resizable=0;points=[];autosize=1;strokeColor=none;fillColor=none;" vertex="1" parent="1">
                    <mxGeometry x="-380" y="322.5" width="100" height="20" as="geometry"/>
                </mxCell>
                <mxCell id="210" value="" style="edgeStyle=none;html=1;exitX=0;exitY=0.5;exitDx=0;exitDy=0;entryX=0.532;entryY=-0.172;entryDx=0;entryDy=0;startArrow=none;startFill=0;endArrow=none;endFill=1;entryPerimeter=0;" edge="1" parent="1" source="6" target="209">
                    <mxGeometry relative="1" as="geometry">
                        <mxPoint x="-115" y="5" as="sourcePoint"/>
                        <mxPoint x="105" y="627.5" as="targetPoint"/>
                        <Array as="points">
                            <mxPoint x="-327" y="120"/>
                        </Array>
                    </mxGeometry>
                </mxCell>
                <mxCell id="212" value="complete()" style="text;html=1;align=center;verticalAlign=middle;resizable=0;points=[];autosize=1;strokeColor=none;fillColor=none;fontStyle=1" vertex="1" parent="1">
                    <mxGeometry x="145" y="500" width="80" height="20" as="geometry"/>
                </mxCell>
                <mxCell id="213" value="" style="edgeStyle=none;html=1;exitX=0.5;exitY=1;exitDx=0;exitDy=0;startArrow=none;startFill=0;endArrow=none;endFill=1;" edge="1" parent="1" source="13" target="212">
                    <mxGeometry relative="1" as="geometry">
                        <mxPoint x="185" y="460" as="sourcePoint"/>
                        <mxPoint x="185" y="560" as="targetPoint"/>
                    </mxGeometry>
                </mxCell>
                <mxCell id="214" value="forceComplete()" style="text;html=1;align=center;verticalAlign=middle;resizable=0;points=[];autosize=1;strokeColor=none;fillColor=none;" vertex="1" parent="1">
                    <mxGeometry x="345" y="350" width="100" height="20" as="geometry"/>
                </mxCell>
                <mxCell id="216" value="" style="edgeStyle=none;html=1;exitX=1;exitY=0.75;exitDx=0;exitDy=0;startArrow=none;startFill=0;endArrow=none;endFill=1;entryX=0.277;entryY=-0.245;entryDx=0;entryDy=0;entryPerimeter=0;" edge="1" parent="1" source="12" target="214">
                    <mxGeometry relative="1" as="geometry">
                        <mxPoint x="270" y="240" as="sourcePoint"/>
                        <mxPoint x="370" y="340" as="targetPoint"/>
                        <Array as="points"/>
                    </mxGeometry>
                </mxCell>
            </root>
        </mxGraphModel>
    </diagram>
</mxfile>